<svg id="Layer_1" data-name="Layer 1" xmlns="http://www.w3.org/2000/svg" xmlns:xlink="http://www.w3.org/1999/xlink" viewBox="0 0 720 720"><defs><style>.cls-1{fill:url(#linear-gradient);}.cls-2{fill:url(#linear-gradient-2);}.cls-3{fill:url(#linear-gradient-3);}</style><linearGradient id="linear-gradient" x1="23.7" y1="264.94" x2="253.56" y2="777.22" gradientUnits="userSpaceOnUse"><stop offset="0" stop-color="#00a2bd"/><stop offset="1" stop-color="#001780"/></linearGradient><linearGradient id="linear-gradient-2" x1="592.46" y1="546.07" x2="299.1" y2="681.8" gradientUnits="userSpaceOnUse"><stop offset="0" stop-color="#e37800"/><stop offset="1" stop-color="#500"/></linearGradient><linearGradient id="linear-gradient-3" x1="502.97" y1="288.71" x2="713.73" y2="288.71" gradientUnits="userSpaceOnUse"><stop offset="0" stop-color="#d20080"/><stop offset="1" stop-color="#da3301"/></linearGradient></defs><title>aro</title><path class="cls-1" d="M191.37,670.93A354,354,0,0,1,49,191.28l47.24,25.66A300.21,300.21,0,0,0,217,623.69Z"/><path class="cls-2" d="M360,713.64a354.3,354.3,0,0,1-168.63-42.71L217,623.69A300.22,300.22,0,0,0,623.79,502.87L671,528.53A353.73,353.73,0,0,1,360,713.64Z"/><path class="cls-3" d="M671,528.53l-47.23-25.66A300.24,300.24,0,0,0,503,96.12l25.66-47.24A354,354,0,0,1,671,528.53Z"/></svg>